<?xml version="1.0" encoding="UTF-8" standalone="no"?>
<svg
   xmlns:dc="http://purl.org/dc/elements/1.1/"
   xmlns:cc="http://creativecommons.org/ns#"
   xmlns:rdf="http://www.w3.org/1999/02/22-rdf-syntax-ns#"
   xmlns:svg="http://www.w3.org/2000/svg"
   xmlns="http://www.w3.org/2000/svg"
   xmlns:sodipodi="http://sodipodi.sourceforge.net/DTD/sodipodi-0.dtd"
   xmlns:inkscape="http://www.inkscape.org/namespaces/inkscape"
   version="1.1"
   width="764.90997"
   height="568"
   id="svg2"
   inkscape:version="0.48.4 r9939"
   sodipodi:docname="datenbank.svg">
  <metadata
     id="metadata286">
    <rdf:RDF>
      <cc:Work
         rdf:about="">
        <dc:format>image/svg+xml</dc:format>
        <dc:type
           rdf:resource="http://purl.org/dc/dcmitype/StillImage" />
      </cc:Work>
    </rdf:RDF>
  </metadata>
  <sodipodi:namedview
     pagecolor="#ffffff"
     bordercolor="#666666"
     borderopacity="1"
     objecttolerance="10"
     gridtolerance="10"
     guidetolerance="10"
     inkscape:pageopacity="0"
     inkscape:pageshadow="2"
     inkscape:window-width="640"
     inkscape:window-height="480"
     id="namedview284"
     showgrid="false"
     inkscape:zoom="0.29640035"
     inkscape:cx="482.45557"
     inkscape:cy="54.212254"
     inkscape:window-x="123"
     inkscape:window-y="38"
     inkscape:window-maximized="0"
     inkscape:current-layer="g30" />
  <defs
     id="defs4">
    <clipPath
       id="e09322dASw2o">
      <path
         d="m 0,0 80,0 0,100 -80,0 z"
         id="path7"
         inkscape:connector-curvature="0"
         style="fill:none;stroke:none" />
    </clipPath>
    <linearGradient
       id="a6dPry8KZNN4"
       x1="0"
       x2="80"
       y1="82.842003"
       y2="82.842003"
       gradientUnits="userSpaceOnUse">
      <stop
         offset="0"
         stop-color="#808080"
         id="stop10" />
      <stop
         offset="0.7055"
         stop-color="#FFF"
         id="stop12" />
      <stop
         offset="1"
         stop-color="#171717"
         id="stop14" />
    </linearGradient>
    <linearGradient
       id="iA4GwfErwcza"
       x1="0"
       x2="80"
       y1="63.775002"
       y2="63.775002"
       gradientUnits="userSpaceOnUse">
      <stop
         offset="0"
         stop-color="#808080"
         id="stop17" />
      <stop
         offset="0.7055"
         stop-color="#FFF"
         id="stop19" />
      <stop
         offset="1"
         stop-color="#171717"
         id="stop21" />
    </linearGradient>
    <linearGradient
       id="FXeTWWTWzA1G"
       x1="0"
       x2="80"
       y1="42.189999"
       y2="42.189999"
       gradientUnits="userSpaceOnUse">
      <stop
         offset="0"
         stop-color="#808080"
         id="stop24" />
      <stop
         offset="0.7055"
         stop-color="#FFF"
         id="stop26" />
      <stop
         offset="1"
         stop-color="#171717"
         id="stop28" />
    </linearGradient>
  </defs>
  <g
     id="g30">
    <g
       transform="translate(70.702015,182.88803)"
       id="g36">
      <g
         id="g38">
        <g
           transform="scale(2.9,1.8)"
           id="g40">
          <g
             id="g42">
            <path
               d="m 0,0 100,0 q 0,0 0,0 l 0,100 q 0,0 0,0 L 0,100 q 0,0 0,0 L 0,0 q 0,0 0,0 z"
               id="path44"
               inkscape:connector-curvature="0"
               style="fill:#0099cc;stroke:none" />
            <g
               transform="scale(0.34482759,0.55555556)"
               id="g46">
              <path
                 d="m 0,0 290,0 q 0,0 0,0 l 0,180 q 0,0 0,0 L 0,180 q 0,0 0,0 L 0,0 q 0,0 0,0 z"
                 stroke-miterlimit="10"
                 id="path48"
                 inkscape:connector-curvature="0"
                 style="fill:none;stroke:#0e75ab;stroke-width:2;stroke-miterlimit:10" />
            </g>
          </g>
          <g
             id="g50">
            <g
               transform="scale(0.34482759,0.55555556)"
               id="g52">
              <path
                 d="m 5.8,3.6 0,171 275.5,0 0,-169.2 -272.6,0 z"
                 id="path54"
                 inkscape:connector-curvature="0"
                 style="opacity:0;fill:#000000;fill-opacity:0;stroke:none" />
              <path
                 d="m 5.8,3.6 m 0,0 0,4 m 0,0 m 0,2 0,4 m 0,0 m 0,2 0,4 m 0,0 m 0,2 0,4 m 0,0 m 0,2 0,4 m 0,0 m 0,2 0,4 m 0,0 m 0,2 0,4 m 0,0 m 0,2 0,4 m 0,0 m 0,2 0,4 m 0,0 m 0,2 0,4 m 0,0 m 0,2 0,4 m 0,0 m 0,2 0,4 m 0,0 m 0,2 0,4 m 0,0 m 0,2 0,4 m 0,0 m 0,2 0,4 m 0,0 m 0,2 0,4 m 0,0 m 0,2 0,4 m 0,0 m 0,2 0,4 m 0,0 m 0,2 0,4 m 0,0 m 0,2 0,4 m 0,0 m 0,2 0,4 m 0,0 m 0,2 0,4 m 0,0 m 0,2 0,4 m 0,0 m 0,2 0,4 m 0,0 m 0,2 0,4 m 0,0 m 0,2 0,4 m 0,0 m 0,2 0,4 m 0,0 m 0,2 0,4 m 0,0 m 0,2 0,3 1,0 m 0,0 m 2,0 4,0 m 0,0 m 2,0 4,0 m 0,0 m 2,0 4,0 m 0,0 m 2,0 4,0 m 0,0 m 2,0 4,0 m 0,0 m 2,0 4,0 m 0,0 m 2,0 4,0 m 0,0 m 2,0 4,0 m 0,0 m 2,0 4,0 m 0,0 m 2,0 4,0 m 0,0 m 2,0 4,0 m 0,0 m 2,0 4,0 m 0,0 m 2,0 4,0 m 0,0 m 2,0 4,0 m 0,0 m 2,0 4,0 m 0,0 m 2,0 4,0 m 0,0 m 2,0 4,0 m 0,0 m 2,0 4,0 m 0,0 m 2,0 4,0 m 0,0 m 2,0 4,0 m 0,0 m 2,0 4,0 m 0,0 m 2,0 4,0 m 0,0 m 2,0 4,0 m 0,0 m 2,0 4,0 m 0,0 m 2,0 4,0 m 0,0 m 2,0 4,0 m 0,0 m 2,0 4,0 m 0,0 m 2,0 4,0 m 0,0 m 2,0 4,0 m 0,0 m 2,0 4,0 m 0,0 m 2,0 4,0 m 0,0 m 2,0 4,0 m 0,0 m 2,0 4,0 m 0,0 m 2,0 4,0 m 0,0 m 2,0 4,0 m 0,0 m 2,0 4,0 m 0,0 m 2,0 4,0 m 0,0 m 2,0 4,0 m 0,0 m 2,0 4,0 m 0,0 m 2,0 4,0 m 0,0 m 2,0 4,0 m 0,0 m 2,0 4,0 m 0,0 m 2,0 4,0 m 0,0 m 2,0 4,0 m 0,0 m 2,0 4,0 m 0,0 m 2,0 2.5,0 0,-1.5 m 0,0 m 0,-2 0,-4 m 0,0 m 0,-2 0,-4 m 0,0 m 0,-2 0,-4 m 0,0 m 0,-2 0,-4 m 0,0 m 0,-2 0,-4 m 0,0 m 0,-2 0,-4 m 0,0 m 0,-2 0,-4 m 0,0 m 0,-2 0,-4 m 0,0 m 0,-2 0,-4 m 0,0 m 0,-2 0,-4 m 0,0 m 0,-2 0,-4 m 0,0 m 0,-2 0,-4 m 0,0 m 0,-2 0,-4 m 0,0 m 0,-2 0,-4 m 0,0 m 0,-2 0,-4 m 0,0 m 0,-2 0,-4 m 0,0 m 0,-2 0,-4 m 0,0 m 0,-2 0,-4 m 0,0 m 0,-2 0,-4 m 0,0 m 0,-2 0,-4 m 0,0 m 0,-2 0,-4 m 0,0 m 0,-2 0,-4 m 0,0 m 0,-2 0,-4 m 0,0 m 0,-2 0,-4 m 0,0 m 0,-2 0,-4 m 0,0 m 0,-2 0,-4 m 0,0 m 0,-2 0,-4 m 0,0 m 0,-2 0,-3.7 -0.3,0 m 0,0 m -2,0 -4,0 m 0,0 m -2,0 -4,0 m 0,0 m -2,0 -4,0 m 0,0 m -2,0 -4,0 m 0,0 m -2,0 -4,0 m 0,0 m -2,0 -4,0 m 0,0 m -2,0 -4,0 m 0,0 m -2,0 -4,0 m 0,0 m -2,0 -4,0 m 0,0 m -2,0 -4,0 m 0,0 m -2,0 -4,0 m 0,0 m -2,0 -4,0 m 0,0 m -2,0 -4,0 m 0,0 m -2,0 -4,0 m 0,0 m -2,0 -4,0 m 0,0 m -2,0 -4,0 m 0,0 m -2,0 -4,0 m 0,0 m -2,0 -4,0 m 0,0 m -2,0 -4,0 m 0,0 m -2,0 -4,0 m 0,0 m -2,0 -4,0 m 0,0 m -2,0 -4,0 m 0,0 m -2,0 -4,0 m 0,0 m -2,0 -4,0 m 0,0 m -2,0 -4,0 m 0,0 m -2,0 -4,0 m 0,0 m -2,0 -4,0 m 0,0 m -2,0 -4,0 m 0,0 m -2,0 -4,0 m 0,0 m -2,0 -4,0 m 0,0 m -2,0 -4,0 m 0,0 m -2,0 -4,0 m 0,0 m -2,0 -4,0 m 0,0 m -2,0 -4,0 m 0,0 m -2,0 -4,0 m 0,0 m -2,0 -4,0 m 0,0 m -2,0 -4,0 m 0,0 m -2,0 -4,0 m 0,0 m -2,0 -4,0 m 0,0 m -2,0 -4,0 m 0,0 m -2,0 -4,0 m 0,0 m -2,0 -4,0 m 0,0 m -2,0 -4,0 m 0,0 m -2,0 -4,0 m 0,0 m -2,0 -4,0 m 0,0 m -2,0 -0.3,0 z"
                 stroke-miterlimit="10"
                 id="path56"
                 inkscape:connector-curvature="0"
                 style="opacity:0;fill:none;stroke:#3c7626;stroke-width:2;stroke-miterlimit:10" />
            </g>
          </g>
        </g>
      </g>
    </g>
    <g
       transform="translate(74.702015,231.88803)"
       id="g58">
      <text
         font-size="36px"
         font-style="normal"
         font-weight="normal"
         text-decoration="none"
         x="103"
         y="33"
         id="text60"
         style="font-size:36px;font-style:normal;font-weight:normal;text-decoration:none;fill:#ffffff;stroke:none;font-family:Arial">Data</text>
      <text
         font-size="36px"
         font-style="normal"
         font-weight="normal"
         text-decoration="none"
         x="35"
         y="74"
         id="text62"
         style="font-size:36px;font-style:normal;font-weight:normal;text-decoration:none;fill:#ffffff;stroke:none;font-family:Arial">Datenbanken</text>
    </g>
    <g
       transform="translate(300.70202,152.88803)"
       id="g64">
      <g
         id="g66">
        <g
           clip-path="url(#e09322dASw2o)"
           id="g68">
          <g
             id="g70">
            <g
               id="g72">
              <g
                 id="g74">
                <path
                   d="m 0,0 80,0 q 0,0 0,0 l 0,100 q 0,0 0,0 l -80,0 q 0,0 0,0 L 0,0 q 0,0 0,0 z"
                   stroke-miterlimit="10"
                   id="path76"
                   inkscape:connector-curvature="0"
                   style="fill:#000000;fill-opacity:0;stroke:#000000;stroke-miterlimit:10;stroke-opacity:0" />
              </g>
              <g
                 id="g78">
                <path
                   d="m 80,22.54 c -0.035,-5.795 -80.033,-5.795 -80,0 L 0,74.9 c 0.034,5.797 4.289,12.984 12.124,17.402 15.671,8.841 40.681,8.447 56.252,-0.393 C 76.16,87.491 80.032,81.634 80,75.841 L 80,22.54 z"
                   stroke-miterlimit="10"
                   id="path80"
                   inkscape:connector-curvature="0"
                   style="fill:#003366;stroke:#000000;stroke-miterlimit:10;stroke-opacity:0" />
              </g>
            </g>
            <g
               id="g82">
              <g
                 id="g84">
                <path
                   d="m 0,0 80,0 q 0,0 0,0 l 0,100 q 0,0 0,0 l -80,0 q 0,0 0,0 L 0,0 q 0,0 0,0 z"
                   stroke-miterlimit="10"
                   id="path86"
                   inkscape:connector-curvature="0"
                   style="fill:#000000;fill-opacity:0;stroke:#000000;stroke-miterlimit:10;stroke-opacity:0" />
              </g>
              <g
                 id="g88">
                <g
                   id="g90">
                  <path
                     d="m 68.98,77.395 c -15.9,9.011 -41.769,9.011 -57.772,0 C 5.298,74.069 1.565,69.975 0,65.685 l 0,11.241 c 0.035,5.904 3.973,11.812 11.81,16.318 15.67,9.008 40.998,9.008 56.567,-0.001 C 76.161,88.738 80.033,82.83 80,76.926 l 0,-11.108 c -1.544,4.244 -5.21,8.283 -11.02,11.577 z"
                     stroke-miterlimit="10"
                     id="path92"
                     inkscape:connector-curvature="0"
                     style="fill:url(#a6dPry8KZNN4);stroke:#000000;stroke-miterlimit:10;stroke-opacity:0" />
                </g>
              </g>
              <g
                 id="g94">
                <g
                   id="g96">
                  <path
                     d="M 68.98,58.327 C 53.08,67.338 27.211,67.338 11.208,58.329 5.298,55.001 1.565,50.908 0,46.617 L 0,57.86 c 0.035,5.903 3.973,11.812 11.809,16.316 15.67,9.01 40.998,9.01 56.567,0 C 76.161,69.672 80.033,63.764 80,57.86 l 0,-11.108 c -1.544,4.244 -5.21,8.282 -11.02,11.575 z"
                     stroke-miterlimit="10"
                     id="path98"
                     inkscape:connector-curvature="0"
                     style="fill:url(#iA4GwfErwcza);stroke:#000000;stroke-miterlimit:10;stroke-opacity:0" />
                </g>
              </g>
              <g
                 id="g100">
                <g
                   id="g102">
                  <path
                     d="m 68.98,39.262 c -15.9,9.008 -41.769,9.008 -57.772,0 C 5.298,35.934 0,29.531 0.014,22.515 L 0,38.793 c 0.035,5.902 3.973,11.812 11.809,16.315 15.67,9.01 40.998,9.01 56.567,-0.002 C 76.161,50.604 80.033,44.695 80,38.793 l 0,-16.278 c 0,0.251 -5.21,13.453 -11.02,16.747 z"
                     stroke-miterlimit="10"
                     id="path104"
                     inkscape:connector-curvature="0"
                     style="fill:url(#FXeTWWTWzA1G);stroke:#000000;stroke-miterlimit:10;stroke-opacity:0" />
                </g>
              </g>
              <g
                 id="g106">
                <path
                   d="m 39.836,1.052 c 22.04555,0 39.917,10.06912 39.917,22.49 0,12.42088 -17.87145,22.49 -39.917,22.49 -22.04555,0 -39.917,-10.06912 -39.917,-22.49 0,-12.42088 17.87145,-22.49 39.917,-22.49 z"
                   stroke-miterlimit="10"
                   id="path108"
                   inkscape:connector-curvature="0"
                   style="fill:#d0d2d3;stroke:#000000;stroke-miterlimit:10;stroke-opacity:0" />
              </g>
              <g
                 id="g110">
                <path
                   d="m 68.191,7.228 c -15.671,-9.014 -40.999,-9.014 -56.567,0 -15.569,9.011 -15.489,23.619 0.185,32.63 15.671,9.013 40.999,9.013 56.568,-10e-4 15.568,-9.01 15.487,-23.619 -0.186,-32.629 z m -2.653,31 C 51.526,46.336 28.729,46.336 14.627,38.23 0.522,30.118 0.448,16.968 14.462,8.857 c 14.011,-8.109 36.808,-8.109 50.911,0 14.104,8.111 14.179,21.261 0.165,29.371 z"
                   stroke-miterlimit="10"
                   id="path112"
                   inkscape:connector-curvature="0"
                   style="fill:#7f7f7f;stroke:#000000;stroke-miterlimit:10;stroke-opacity:0" />
              </g>
            </g>
          </g>
        </g>
      </g>
    </g>
    <g
       transform="translate(580.70202,244.88803)"
       id="g114">
      <g
         id="g116">
        <g
           transform="scale(1.4422222,1.18)"
           id="g118">
          <g
             transform="scale(0.81,0.72)"
             id="g120">
            <g
               id="g122">
              <g
                 transform="scale(0.85601781,1.1770245)"
                 id="g124">
                <path
                   d="m 0,0 116.82,0 0,84.96 Q 87.615,63.72 58.41,84.96 29.205,106.2 0,84.96 z"
                   stroke-miterlimit="10"
                   id="path126"
                   inkscape:connector-curvature="0"
                   style="fill:#999999;stroke:#000000;stroke-width:2;stroke-miterlimit:10" />
              </g>
            </g>
            <g
               transform="translate(11.5,13.25)"
               id="g128">
              <g
                 id="g130">
                <g
                   transform="scale(0.85601781,1.1770245)"
                   id="g132">
                  <path
                     d="m 0,0 116.82,0 0,84.96 Q 87.615,63.72 58.41,84.96 29.205,106.2 0,84.96 z"
                     stroke-miterlimit="10"
                     id="path134"
                     inkscape:connector-curvature="0"
                     style="fill:#999999;stroke:#000000;stroke-width:2;stroke-miterlimit:10" />
                </g>
              </g>
            </g>
            <g
               transform="translate(23,26.5)"
               id="g136">
              <g
                 id="g138">
                <g
                   transform="scale(0.85601781,1.1770245)"
                   id="g140">
                  <path
                     d="m 0,0 116.82,0 0,84.96 Q 87.615,63.72 58.41,84.96 29.205,106.2 0,84.96 z"
                     stroke-miterlimit="10"
                     id="path142"
                     inkscape:connector-curvature="0"
                     style="fill:#999999;stroke:#000000;stroke-width:2;stroke-miterlimit:10" />
                </g>
              </g>
            </g>
          </g>
        </g>
      </g>
    </g>
    <g
       transform="translate(584.01313,276.88803)"
       id="g144">
      <text
         font-size="24px"
         font-style="normal"
         font-weight="normal"
         text-decoration="none"
         x="7.3000002"
         y="21"
         id="text146"
         style="font-size:24px;font-style:normal;font-weight:normal;text-decoration:none;fill:#ffffff;stroke:none;font-family:Arial">Dokumente</text>
      <text
         font-size="14px"
         font-style="normal"
         font-weight="normal"
         text-decoration="none"
         x="18.799999"
         y="41"
         id="text148"
         style="font-size:14px;font-style:normal;font-weight:normal;text-decoration:none;fill:#ffffff;stroke:none;font-family:Arial">HTML, PDF etc.</text>
    </g>
    <g
       transform="translate(480.70202,64.888033)"
       id="g150">
      <g
         id="g152">
        <g
           transform="scale(1.4422222,1.18)"
           id="g154">
          <g
             transform="scale(0.81,0.72)"
             id="g156">
            <g
               id="g158">
              <g
                 transform="scale(0.85601781,1.1770245)"
                 id="g160">
                <path
                   d="m 0,0 116.82,0 0,84.96 Q 87.615,63.72 58.41,84.96 29.205,106.2 0,84.96 z"
                   stroke-miterlimit="10"
                   id="path162"
                   inkscape:connector-curvature="0"
                   style="fill:#999999;stroke:#000000;stroke-width:2;stroke-miterlimit:10" />
              </g>
            </g>
            <g
               transform="translate(11.5,13.25)"
               id="g164">
              <g
                 id="g166">
                <g
                   transform="scale(0.85601781,1.1770245)"
                   id="g168">
                  <path
                     d="m 0,0 116.82,0 0,84.96 Q 87.615,63.72 58.41,84.96 29.205,106.2 0,84.96 z"
                     stroke-miterlimit="10"
                     id="path170"
                     inkscape:connector-curvature="0"
                     style="fill:#999999;stroke:#000000;stroke-width:2;stroke-miterlimit:10" />
                </g>
              </g>
            </g>
            <g
               transform="translate(23,26.5)"
               id="g172">
              <g
                 id="g174">
                <g
                   transform="scale(0.85601781,1.1770245)"
                   id="g176">
                  <path
                     d="m 0,0 116.82,0 0,84.96 Q 87.615,63.72 58.41,84.96 29.205,106.2 0,84.96 z"
                     stroke-miterlimit="10"
                     id="path178"
                     inkscape:connector-curvature="0"
                     style="fill:#999999;stroke:#000000;stroke-width:2;stroke-miterlimit:10" />
                </g>
              </g>
            </g>
          </g>
        </g>
      </g>
    </g>
    <g
       transform="translate(484.01313,96.888033)"
       id="g180">
      <text
         font-size="24px"
         font-style="normal"
         font-weight="normal"
         text-decoration="none"
         x="7.3000002"
         y="21"
         id="text182"
         style="font-size:24px;font-style:normal;font-weight:normal;text-decoration:none;fill:#ffffff;stroke:none;font-family:Arial">Dokumente</text>
      <text
         font-size="14px"
         font-style="normal"
         font-weight="normal"
         text-decoration="none"
         x="18.799999"
         y="41"
         id="text184"
         style="font-size:14px;font-style:normal;font-weight:normal;text-decoration:none;fill:#ffffff;stroke:none;font-family:Arial">HTML, PDF etc.</text>
    </g>
    <g
       transform="translate(480.70202,392.88803)"
       id="g186">
      <g
         id="g188">
        <g
           transform="scale(1.4422222,1.18)"
           id="g190">
          <g
             transform="scale(0.81,0.72)"
             id="g192">
            <g
               id="g194">
              <g
                 transform="scale(0.85601781,1.1770245)"
                 id="g196">
                <path
                   d="m 0,0 116.82,0 0,84.96 Q 87.615,63.72 58.41,84.96 29.205,106.2 0,84.96 z"
                   stroke-miterlimit="10"
                   id="path198"
                   inkscape:connector-curvature="0"
                   style="fill:#999999;stroke:#000000;stroke-width:2;stroke-miterlimit:10" />
              </g>
            </g>
            <g
               transform="translate(11.5,13.25)"
               id="g200">
              <g
                 id="g202">
                <g
                   transform="scale(0.85601781,1.1770245)"
                   id="g204">
                  <path
                     d="m 0,0 116.82,0 0,84.96 Q 87.615,63.72 58.41,84.96 29.205,106.2 0,84.96 z"
                     stroke-miterlimit="10"
                     id="path206"
                     inkscape:connector-curvature="0"
                     style="fill:#999999;stroke:#000000;stroke-width:2;stroke-miterlimit:10" />
                </g>
              </g>
            </g>
            <g
               transform="translate(23,26.5)"
               id="g208">
              <g
                 id="g210">
                <g
                   transform="scale(0.85601781,1.1770245)"
                   id="g212">
                  <path
                     d="m 0,0 116.82,0 0,84.96 Q 87.615,63.72 58.41,84.96 29.205,106.2 0,84.96 z"
                     stroke-miterlimit="10"
                     id="path214"
                     inkscape:connector-curvature="0"
                     style="fill:#999999;stroke:#000000;stroke-width:2;stroke-miterlimit:10" />
                </g>
              </g>
            </g>
          </g>
        </g>
      </g>
    </g>
    <g
       transform="translate(484.01313,424.88803)"
       id="g216">
      <text
         font-size="24px"
         font-style="normal"
         font-weight="normal"
         text-decoration="none"
         x="7.3000002"
         y="21"
         id="text218"
         style="font-size:24px;font-style:normal;font-weight:normal;text-decoration:none;fill:#ffffff;stroke:none;font-family:Arial">Dokumente</text>
      <text
         font-size="14px"
         font-style="normal"
         font-weight="normal"
         text-decoration="none"
         x="18.799999"
         y="41"
         id="text220"
         style="font-size:14px;font-style:normal;font-weight:normal;text-decoration:none;fill:#ffffff;stroke:none;font-family:Arial">HTML, PDF etc.</text>
    </g>
    <g
       transform="matrix(0.73919634,-0.67349,0.67349,0.73919634,380.70202,197.26401)"
       id="g222">
      <g
         id="g224">
        <g
           transform="scale(1,0.5)"
           id="g226">
          <g
             id="g228">
            <g
               transform="scale(1,2)"
               id="g230">
              <path
                 d="M 0,15 75,15 75,0 100,25 75,50 75,35 0,35 0,15 0,15 z"
                 stroke-miterlimit="10"
                 id="path232"
                 inkscape:connector-curvature="0"
                 style="fill:#eef19f;stroke:#b5bf5e;stroke-width:2;stroke-miterlimit:10" />
            </g>
          </g>
        </g>
      </g>
    </g>
    <g
       transform="translate(384.49909,252.06941)"
       id="g234">
      <g
         id="g236">
        <g
           transform="scale(1,0.5)"
           id="g238">
          <g
             id="g240">
            <g
               transform="scale(1,2)"
               id="g242">
              <path
                 d="M 0,15 75,15 75,0 100,25 75,50 75,35 0,35 0,15 0,15 z"
                 stroke-miterlimit="10"
                 id="path244"
                 inkscape:connector-curvature="0"
                 style="fill:#eef19f;stroke:#b5bf5e;stroke-width:2;stroke-miterlimit:10" />
            </g>
          </g>
        </g>
      </g>
    </g>
    <g
       transform="matrix(0.67375386,0.73895584,-0.73895584,0.67375386,419.28529,308.27778)"
       id="g246">
      <g
         id="g248">
        <g
           transform="scale(1,0.5)"
           id="g250">
          <g
             id="g252">
            <g
               transform="scale(1,2)"
               id="g254">
              <path
                 d="M 0,15 75,15 75,0 100,25 75,50 75,35 0,35 0,15 0,15 z"
                 stroke-miterlimit="10"
                 id="path256"
                 inkscape:connector-curvature="0"
                 style="fill:#eef19f;stroke:#b5bf5e;stroke-width:2;stroke-miterlimit:10" />
            </g>
          </g>
        </g>
      </g>
    </g>
    <g
       transform="translate(340.70202,252.88803)"
       id="g258">
      <g
         id="g260">
        <g
           transform="scale(0.62666667,0.47)"
           id="g262">
          <g
             id="g264">
            <path
               d="m 0,0 100,0 q 0,0 0,0 l 0,100 q 0,0 0,0 L 0,100 q 0,0 0,0 L 0,0 q 0,0 0,0 z"
               id="path266"
               inkscape:connector-curvature="0"
               style="fill:#0099cc;stroke:none" />
            <g
               transform="scale(1.5957447,2.1276596)"
               id="g268">
              <path
                 d="m 0,0 62.666667,0 q 0,0 0,0 l 0,47 q 0,0 0,0 L 0,47 q 0,0 0,0 L 0,0 q 0,0 0,0 z"
                 stroke-miterlimit="10"
                 id="path270"
                 inkscape:connector-curvature="0"
                 style="fill:none;stroke:#0e75ab;stroke-width:2;stroke-miterlimit:10" />
            </g>
          </g>
          <g
             id="g272">
            <g
               transform="scale(1.5957447,2.1276596)"
               id="g274">
              <path
                 d="m 1.2533333,0.94 0,44.65 59.5333337,0 0,-44.18 L 1.88,1.41 z"
                 id="path276"
                 inkscape:connector-curvature="0"
                 style="opacity:0;fill:#000000;fill-opacity:0;stroke:none" />
              <path
                 d="m 1.2533333,0.94 m 0,0 0,4 m 0,0 m 0,2 0,4 m 0,0 m 0,2 0,4 m 0,0 m 0,2 0,4 m 0,0 m 0,2 0,4 m 0,0 m 0,2 0,4 m 0,0 m 0,2 0,4 m 0,0 m 0,2 0,2.65 1.35,0 m 0,0 m 2,0 4,0 m 0,0 m 1.9999997,0 4,0 m 0,0 m 2,0 4,0 m 0,0 m 2,0 4,0 m 0,0 m 2,0 4,0 m 0,0 m 2,0 4,0 m 0,0 m 2,0 4,0 m 0,0 m 2,0 4,0 m 0,0 m 2,0 4,0 m 0,0 m 2,0 2.183334,0 0,-1.816667 m 0,0 m 0,-2 0,-4 m 0,0 m 0,-2 0,-4 m 0,0 m 0,-2 0,-4 m 0,0 m 0,-2 0,-4 m 0,0 m 0,-2 0,-4 m 0,0 m 0,-2 0,-3.9999997 m 0,0 m 0,-2 0,-4 m 0,0 M 59.15,1.41 l -4,0 m 0,0 m -2,0 -4,0 m 0,0 m -2,0 -4,0 m 0,0 m -2,0 -4,0 m 0,0 m -2,0 -4,0 m 0,0 m -2,0 -4,0 m 0,0 m -2,0 -4,0 m 0,0 m -2,0 -4,0 m 0,0 m -2,0 -4,0 m 0,0 m -2,0 -3.27,0 z"
                 stroke-miterlimit="10"
                 id="path278"
                 inkscape:connector-curvature="0"
                 style="opacity:0;fill:none;stroke:#3c7626;stroke-width:2;stroke-miterlimit:10" />
            </g>
          </g>
        </g>
      </g>
    </g>
    <g
       transform="translate(343.95535,262.88803)"
       id="g280">
      <text
         font-size="24px"
         font-style="normal"
         font-weight="normal"
         text-decoration="none"
         x="3.5799999"
         y="21"
         id="text282"
         style="font-size:24px;font-style:normal;font-weight:normal;text-decoration:none;fill:#ffffff;stroke:none;font-family:Arial">PHP</text>
    </g>
  </g>
</svg>
